<svg 
 xmlns="http://www.w3.org/2000/svg"
 xmlns:xlink="http://www.w3.org/1999/xlink"
 width="45px" height="44px">
<path fill-rule="evenodd"  fill="rgb(21, 27, 38)"
 d="M43.346,13.251 L38.646,15.002 C38.420,15.086 38.189,15.126 37.961,15.126 C37.154,15.126 36.397,14.623 36.101,13.811 C35.723,12.771 36.249,11.617 37.277,11.234 L41.978,9.483 C43.004,9.101 44.144,9.633 44.522,10.674 C44.900,11.715 44.374,12.868 43.346,13.251 ZM34.734,7.403 C34.342,7.879 33.778,8.126 33.210,8.126 C32.762,8.126 32.314,7.973 31.943,7.661 C31.102,6.952 30.987,5.687 31.687,4.834 L34.883,0.945 C35.584,0.093 36.832,-0.022 37.674,0.686 C38.515,1.395 38.630,2.661 37.930,3.513 L34.734,7.403 ZM24.204,36.584 L24.204,38.529 C24.204,41.534 21.799,43.970 18.832,43.970 L16.332,43.970 C13.365,43.970 10.959,41.534 10.959,38.529 L10.959,36.584 C5.032,33.986 0.882,28.016 0.882,21.059 C0.882,11.718 8.359,4.145 17.582,4.145 C26.804,4.145 34.281,11.718 34.281,21.059 C34.281,28.016 30.131,33.986 24.204,36.584 ZM24.388,22.591 L20.419,18.226 C20.134,17.914 19.723,17.749 19.314,17.741 C18.895,17.744 18.498,17.926 18.218,18.241 L15.204,21.648 L13.012,18.972 C12.491,18.332 11.553,18.243 10.919,18.774 C10.287,19.305 10.200,20.254 10.725,20.894 L14.017,24.915 C14.293,25.252 14.700,25.450 15.133,25.459 C15.141,25.459 15.151,25.459 15.161,25.459 C15.583,25.459 15.985,25.277 16.268,24.959 L19.341,21.485 L22.201,24.631 C22.759,25.243 23.699,25.282 24.302,24.718 C24.906,24.155 24.944,23.202 24.388,22.591 Z"/>
</svg>