<svg 
 xmlns="http://www.w3.org/2000/svg"
 xmlns:xlink="http://www.w3.org/1999/xlink"
 width="35px" height="41px">
<path fill-rule="evenodd"  fill="rgb(176, 184, 191)"
 d="M17.962,0.783 C8.578,0.783 0.970,8.386 0.970,17.765 C0.970,24.750 5.193,30.744 11.224,33.352 L11.224,35.304 C11.224,38.322 13.671,40.768 16.690,40.768 L19.233,40.768 C22.253,40.768 24.700,38.322 24.700,35.304 L24.700,33.352 C30.731,30.744 34.954,24.750 34.954,17.765 C34.954,8.386 27.346,0.783 17.962,0.783 ZM24.800,21.438 C24.187,22.005 23.230,21.966 22.662,21.351 L19.751,18.193 L16.625,21.680 C16.338,22.000 15.928,22.183 15.499,22.183 C15.489,22.183 15.479,22.183 15.470,22.182 C15.030,22.174 14.616,21.974 14.335,21.636 L10.985,17.599 C10.451,16.957 10.540,16.003 11.183,15.470 C11.827,14.938 12.782,15.027 13.312,15.669 L15.543,18.357 L18.609,14.936 C18.894,14.619 19.299,14.436 19.725,14.433 C20.140,14.442 20.559,14.607 20.848,14.921 L24.888,19.303 C25.453,19.916 25.415,20.873 24.800,21.438 Z"/>
</svg>