<svg 
 xmlns="http://www.w3.org/2000/svg"
 xmlns:xlink="http://www.w3.org/1999/xlink"
 width="33px" height="35px">
<path fill-rule="evenodd"  fill="rgb(21, 27, 38)"
 d="M30.834,9.689 L19.479,1.092 C17.551,-0.368 14.906,-0.346 13.003,1.146 L2.096,9.687 C0.775,10.722 0.000,12.324 0.000,14.022 L0.000,31.668 C0.000,33.506 1.463,34.996 3.268,34.996 L29.732,34.996 C31.537,34.996 33.000,33.506 33.000,31.668 L33.000,14.078 C33.000,12.348 32.197,10.721 30.834,9.689 ZM22.726,25.958 C22.641,26.098 20.597,29.395 16.185,29.395 C11.578,29.395 10.205,25.849 10.149,25.698 C9.855,24.909 10.244,24.027 11.019,23.728 C11.789,23.431 12.644,23.818 12.946,24.593 C13.028,24.789 13.757,26.339 16.185,26.339 C18.881,26.339 20.128,24.423 20.179,24.342 C20.626,23.639 21.551,23.425 22.245,23.872 C22.940,24.319 23.157,25.245 22.726,25.958 Z"/>
</svg>