<svg 
 xmlns="http://www.w3.org/2000/svg"
 xmlns:xlink="http://www.w3.org/1999/xlink"
 width="33px" height="35px">
<path fill-rule="evenodd"  fill="rgb(176, 184, 191)"
 d="M30.834,9.726 L19.479,1.221 C17.552,-0.223 14.906,-0.201 13.002,1.274 L2.097,9.724 C0.775,10.748 0.000,12.333 0.000,14.012 L0.000,31.469 C0.000,33.287 1.463,34.761 3.268,34.761 L29.732,34.761 C31.537,34.761 33.000,33.287 33.000,31.469 L33.000,14.067 C33.000,12.356 32.197,10.746 30.834,9.726 ZM21.449,27.462 L11.552,27.462 C10.723,27.462 10.051,26.786 10.051,25.951 C10.051,25.116 10.723,24.439 11.552,24.439 L21.449,24.439 C22.277,24.439 22.949,25.116 22.949,25.951 C22.949,26.786 22.277,27.462 21.449,27.462 Z"/>
</svg>