<svg 
 xmlns="http://www.w3.org/2000/svg"
 xmlns:xlink="http://www.w3.org/1999/xlink"
 width="30px" height="40px">
<path fill-rule="evenodd"  fill="rgb(176, 184, 191)"
 d="M14.994,30.412 C6.707,30.412 -0.010,23.602 -0.010,15.199 C-0.010,6.797 6.707,-0.014 14.994,-0.014 C23.279,-0.014 29.997,6.797 29.997,15.199 C29.997,23.602 23.279,30.412 14.994,30.412 ZM1.871,36.291 C2.095,36.136 7.455,32.510 14.956,32.510 C22.448,32.510 27.879,36.129 28.105,36.283 C29.021,36.903 29.268,38.158 28.656,39.087 C28.272,39.670 27.640,39.985 26.997,39.985 C26.618,39.985 26.235,39.876 25.896,39.648 C25.850,39.617 21.196,36.553 14.956,36.553 C8.724,36.553 4.148,39.609 4.103,39.640 C3.191,40.262 1.952,40.014 1.338,39.092 C0.724,38.168 0.961,36.916 1.871,36.291 Z"/>
</svg>