<svg 
 xmlns="http://www.w3.org/2000/svg"
 xmlns:xlink="http://www.w3.org/1999/xlink"
 width="30px" height="40px">
<path fill-rule="evenodd"  fill="rgb(0, 0, 0)"
 d="M15.002,30.413 C6.725,30.413 0.014,23.602 0.014,15.200 C0.014,6.798 6.725,-0.013 15.002,-0.013 C23.280,-0.013 29.990,6.798 29.990,15.200 C29.990,23.602 23.280,30.413 15.002,30.413 ZM10.571,11.235 C10.571,10.404 9.902,9.730 9.076,9.730 C8.251,9.730 7.581,10.404 7.581,11.235 L7.581,14.126 C7.581,14.958 8.251,15.631 9.076,15.631 C9.902,15.631 10.571,14.958 10.571,14.126 L10.571,11.235 ZM22.666,12.681 C23.398,12.298 23.685,11.390 23.305,10.652 C22.924,9.914 22.021,9.624 21.289,10.009 L18.459,11.486 C17.996,11.728 17.692,12.194 17.656,12.716 C17.619,13.239 17.854,13.743 18.278,14.048 L21.214,16.160 C21.477,16.349 21.781,16.440 22.082,16.440 C22.548,16.440 23.007,16.221 23.300,15.810 C23.779,15.133 23.624,14.193 22.952,13.710 L22.003,13.027 L22.666,12.681 ZM1.893,36.292 C2.116,36.137 7.472,32.511 14.964,32.511 C22.449,32.511 27.874,36.130 28.100,36.284 C29.015,36.904 29.261,38.159 28.650,39.088 C28.267,39.671 27.636,39.986 26.993,39.986 C26.615,39.986 26.232,39.877 25.893,39.649 C25.847,39.618 21.198,36.554 14.964,36.554 C8.739,36.554 4.168,39.610 4.123,39.641 C3.211,40.263 1.974,40.015 1.361,39.092 C0.747,38.169 0.984,36.917 1.893,36.292 Z"/>
</svg>