<svg 
 xmlns="http://www.w3.org/2000/svg"
 xmlns:xlink="http://www.w3.org/1999/xlink"
 width="30px" height="40px">
<path fill-rule="evenodd"  fill="rgb(21, 27, 38)"
 d="M28.168,32.524 L1.829,32.524 C0.818,32.524 -0.002,31.697 -0.002,30.676 L-0.002,16.023 C-0.002,7.667 6.714,0.893 14.999,0.893 C23.283,0.893 29.999,7.667 29.999,16.023 L29.999,30.676 C29.999,31.697 29.179,32.524 28.168,32.524 ZM11.675,15.301 L8.837,13.817 C8.102,13.433 7.198,13.722 6.816,14.463 C6.435,15.204 6.722,16.116 7.457,16.501 L8.121,16.848 L7.171,17.533 C6.497,18.018 6.341,18.963 6.823,19.641 C7.115,20.055 7.576,20.275 8.043,20.275 C8.345,20.275 8.649,20.183 8.914,19.993 L11.857,17.873 C12.281,17.567 12.517,17.061 12.480,16.536 C12.443,16.011 12.139,15.543 11.675,15.301 ZM22.798,15.510 C22.798,14.675 22.127,13.998 21.300,13.998 C20.472,13.998 19.801,14.675 19.801,15.510 L19.801,18.413 C19.801,19.248 20.472,19.925 21.300,19.925 C22.127,19.925 22.798,19.248 22.798,18.413 L22.798,15.510 ZM14.999,39.877 C11.994,39.877 9.503,37.697 8.973,34.821 L21.024,34.821 C20.494,37.697 18.003,39.877 14.999,39.877 Z"/>
</svg>