<svg xmlns="http://www.w3.org/2000/svg" width="192" height="192"><path d="M145.616 68.434a8.432 8.432 0 0 1-10.207-6.17c-1.687-6.845-6.327-13.155-13.065-17.772a45.886 45.886 0 0 0-25.752-7.619c-10.851 0-20.987 3.452-28.537 9.722-7.1 5.892-11.006 13.592-11.006 21.676s3.91 15.787 11.006 21.678c7.549 6.27 17.686 9.722 28.537 9.722a8.437 8.437 0 1 1 0 16.873c-14.779 0-28.741-4.834-39.314-13.613a48.62 48.62 0 0 1-12.41-15.326 42.215 42.215 0 0 1 0-38.669 48.62 48.62 0 0 1 12.41-15.324c10.574-8.776 24.536-13.615 39.314-13.615a62.891 62.891 0 0 1 35.288 10.579c10.159 6.96 17.228 16.778 19.907 27.649a8.432 8.432 0 0 1-6.171 10.21zM46.763 122.11a8.436 8.436 0 0 1 9.94 6.6c1.429 7.064 5.97 13.615 12.784 18.446a45.666 45.666 0 0 0 26.263 7.977c10.851 0 20.988-3.454 28.537-9.722 7.1-5.894 11.006-13.592 11.006-21.678s-3.906-15.787-11.005-21.678c-7.549-6.27-17.686-9.723-28.537-9.723a8.437 8.437 0 0 1 0-16.873c14.779 0 28.741 4.834 39.314 13.613a48.587 48.587 0 0 1 12.411 15.325 42.194 42.194 0 0 1 0 38.669 48.584 48.584 0 0 1-12.41 15.322c-10.575 8.778-24.537 13.609-39.315 13.609a62.645 62.645 0 0 1-36.02-11.08c-10.33-7.32-17.277-17.575-19.561-28.863a8.436 8.436 0 0 1 6.593-9.944z"/></svg>